<svg width="173" height="225" viewBox="0 0 173 225" fill="none" xmlns="http://www.w3.org/2000/svg">
<path d="M138.276 66.7324H150.925V113.661C150.925 114.699 150.083 115.541 149.045 115.541H140.156C139.118 115.541 138.276 114.699 138.276 113.661V66.7324Z" fill="#181818"/>
<rect x="134.265" y="58.7007" width="20.9789" height="6.79617" rx="0.940147" fill="#181818"/>
<path d="M146.914 70.3859C146.914 70.0743 147.167 69.8218 147.478 69.8218H148.51C148.821 69.8218 149.074 70.0743 149.074 70.3859V111.888C149.074 112.2 148.821 112.452 148.51 112.452H147.478C147.167 112.452 146.914 112.2 146.914 111.888V70.3859Z" fill="#D9D9D9"/>
<rect x="134.265" y="108.956" width="20.9789" height="6.79617" rx="0.940147" fill="#181818"/>
<path d="M108.528 66.7324H121.458V113.661C121.458 114.699 120.616 115.541 119.578 115.541H110.408C109.37 115.541 108.528 114.699 108.528 113.661V66.7324Z" fill="#181818"/>
<rect x="104.428" y="58.7007" width="21.4451" height="6.79617" rx="0.940147" fill="#181818"/>
<path d="M117.358 70.3859C117.358 70.0743 117.611 69.8218 117.922 69.8218H119.002C119.313 69.8218 119.566 70.0743 119.566 70.3859V111.888C119.566 112.2 119.313 112.452 119.002 112.452H117.922C117.611 112.452 117.358 112.2 117.358 111.888V70.3859Z" fill="#D9D9D9"/>
<rect x="104.428" y="108.956" width="21.4451" height="6.79617" rx="0.940147" fill="#181818"/>
<path d="M79.4456 66.7324H91.8136V113.661C91.8136 114.699 90.9717 115.541 89.9333 115.541H81.3259C80.2875 115.541 79.4456 114.699 79.4456 113.661V66.7324Z" fill="#181818"/>
<rect x="75.524" y="58.7007" width="20.5127" height="6.79617" rx="0.940147" fill="#181818"/>
<path d="M87.892 70.3859C87.892 70.0743 88.1446 69.8218 88.4561 69.8218H89.4395C89.7511 69.8218 90.0036 70.0743 90.0036 70.3859V111.888C90.0036 112.2 89.7511 112.452 89.4395 112.452H88.4561C88.1446 112.452 87.892 112.2 87.892 111.888V70.3859Z" fill="#D9D9D9"/>
<rect x="75.524" y="108.956" width="20.5127" height="6.79617" rx="0.940147" fill="#181818"/>
<path d="M49.7872 66.7324H62.7173V113.661C62.7173 114.699 61.8755 115.541 60.837 115.541H51.6675C50.629 115.541 49.7872 114.699 49.7872 113.661V66.7324Z" fill="#181818"/>
<rect x="45.6874" y="58.7007" width="21.4451" height="6.79617" rx="0.940147" fill="#181818"/>
<path d="M58.6175 70.3859C58.6175 70.0743 58.87 69.8218 59.1816 69.8218H60.261C60.5725 69.8218 60.8251 70.0743 60.8251 70.3859V111.888C60.8251 112.2 60.5725 112.452 60.261 112.452H59.1816C58.87 112.452 58.6175 112.2 58.6175 111.888V70.3859Z" fill="#D9D9D9"/>
<rect x="45.6874" y="108.956" width="21.4451" height="6.79617" rx="0.940147" fill="#181818"/>
<path d="M20.3276 66.7324H32.9766V113.661C32.9766 114.699 32.1348 115.541 31.0963 115.541H22.2079C21.1694 115.541 20.3276 114.699 20.3276 113.661V66.7324Z" fill="#181818"/>
<rect x="16.3169" y="58.7007" width="20.9789" height="6.79617" rx="0.940147" fill="#181818"/>
<path d="M28.9659 70.3859C28.9659 70.0743 29.2185 69.8218 29.53 69.8218H30.5614C30.873 69.8218 31.1255 70.0743 31.1255 70.3859V111.888C31.1255 112.2 30.873 112.452 30.5614 112.452H29.53C29.2185 112.452 28.9659 112.2 28.9659 111.888V70.3859Z" fill="#D9D9D9"/>
<rect x="16.3169" y="108.956" width="20.9789" height="6.79617" rx="0.940147" fill="#181818"/>
<rect x="8.85779" y="117.405" width="154.311" height="6.98861" rx="1.73405" fill="#181818"/>
<rect y="126.257" width="172.027" height="11.6477" rx="1.73405" fill="#181818"/>
<path d="M83.7706 7.00351C85.0429 6.40178 86.5179 6.40178 87.7902 7.00351L167.937 44.9095C169.581 45.6866 170.628 47.3413 170.628 49.1589V49.8066C170.628 52.4027 168.524 54.5073 165.928 54.5073H5.63317C3.03702 54.5073 0.932434 52.4027 0.932434 49.8066V49.1589C0.932434 47.3413 1.98029 45.6866 3.62338 44.9095L83.7706 7.00351Z" fill="#181818"/>
<path fill-rule="evenodd" clip-rule="evenodd" d="M94.6561 22.0303C96.6698 24.1931 97.9015 27.0929 97.9015 30.2801C97.9015 34.2289 96.011 37.7364 93.0851 39.9478C102.381 37.3358 109.09 30.7461 109.09 30.7461C109.09 30.7461 103.127 24.8896 94.6561 22.0303ZM76.9047 22.0303C74.891 24.1931 73.6593 27.0929 73.6593 30.2801C73.6593 34.2289 75.5499 37.7364 78.4758 39.9479C69.18 37.3359 62.4705 30.7461 62.4705 30.7461C62.4705 30.7461 68.4334 24.8895 76.9047 22.0303Z" fill="#D9D9D9"/>
<path d="M94.6304 30.2801C94.6304 35.1639 90.6687 39.1241 85.7804 39.1241C80.8921 39.1241 76.9304 35.1639 76.9304 30.2801C76.9304 25.3963 80.8921 21.4362 85.7804 21.4362C90.6687 21.4362 94.6304 25.3963 94.6304 30.2801Z" stroke="white" stroke-width="1.88029"/>
<mask id="mask0_216_1348" style="mask-type:alpha" maskUnits="userSpaceOnUse" x="0" y="137" width="173" height="88">
<path d="M138.276 184.43H150.925V154.268C150.925 153.229 150.083 152.388 149.045 152.388H140.156C139.118 152.388 138.276 153.229 138.276 154.268V184.43Z" fill="black"/>
<rect width="20.9789" height="4.46166" rx="0.940147" transform="matrix(1 0 0 -1 134.265 189.703)" fill="black"/>
<path d="M146.914 181.838C146.914 182.15 147.167 182.402 147.478 182.402H148.51C148.821 182.402 149.074 182.15 149.074 181.838V154.98C149.074 154.668 148.821 154.416 148.51 154.416H147.478C147.167 154.416 146.914 154.668 146.914 154.98V181.838Z" fill="#D9D9D9"/>
<rect width="20.9789" height="4.46166" rx="0.940147" transform="matrix(1 0 0 -1 134.265 156.711)" fill="black"/>
<path d="M108.528 184.43H121.458V154.268C121.458 153.229 120.616 152.388 119.578 152.388H110.408C109.37 152.388 108.528 153.229 108.528 154.268V184.43Z" fill="black"/>
<rect width="21.4451" height="4.46166" rx="0.940147" transform="matrix(1 0 0 -1 104.428 189.703)" fill="black"/>
<path d="M117.358 181.838C117.358 182.15 117.611 182.402 117.922 182.402H119.002C119.313 182.402 119.566 182.15 119.566 181.838V154.98C119.566 154.668 119.313 154.416 119.002 154.416H117.922C117.611 154.416 117.358 154.668 117.358 154.98V181.838Z" fill="#D9D9D9"/>
<rect width="21.4451" height="4.46166" rx="0.940147" transform="matrix(1 0 0 -1 104.428 156.711)" fill="black"/>
<path d="M79.4456 184.43H91.8136V154.268C91.8136 153.229 90.9717 152.388 89.9333 152.388H81.3259C80.2875 152.388 79.4456 153.229 79.4456 154.268V184.43Z" fill="black"/>
<rect width="20.5127" height="4.46166" rx="0.940147" transform="matrix(1 0 0 -1 75.524 189.703)" fill="black"/>
<path d="M87.892 181.838C87.892 182.15 88.1446 182.402 88.4561 182.402H89.4395C89.7511 182.402 90.0036 182.15 90.0036 181.838V154.98C90.0036 154.668 89.7511 154.416 89.4395 154.416H88.4561C88.1446 154.416 87.892 154.668 87.892 154.98V181.838Z" fill="#D9D9D9"/>
<rect width="20.5127" height="4.46166" rx="0.940147" transform="matrix(1 0 0 -1 75.524 156.711)" fill="black"/>
<path d="M49.7872 184.43H62.7173V154.268C62.7173 153.229 61.8755 152.388 60.837 152.388H51.6675C50.629 152.388 49.7872 153.229 49.7872 154.268V184.43Z" fill="black"/>
<rect width="21.4451" height="4.46166" rx="0.940147" transform="matrix(1 0 0 -1 45.6874 189.703)" fill="black"/>
<path d="M58.6175 181.838C58.6175 182.15 58.87 182.402 59.1816 182.402H60.261C60.5725 182.402 60.8251 182.15 60.8251 181.838V154.98C60.8251 154.668 60.5725 154.416 60.261 154.416H59.1816C58.87 154.416 58.6175 154.668 58.6175 154.98V181.838Z" fill="#D9D9D9"/>
<rect width="21.4451" height="4.46166" rx="0.940147" transform="matrix(1 0 0 -1 45.6874 156.711)" fill="black"/>
<path d="M20.3276 184.43H32.9766V154.268C32.9766 153.229 32.1348 152.388 31.0963 152.388H22.2079C21.1694 152.388 20.3276 153.229 20.3276 154.268V184.43Z" fill="black"/>
<rect width="20.9789" height="4.46166" rx="0.940147" transform="matrix(1 0 0 -1 16.3169 189.703)" fill="black"/>
<path d="M28.9659 181.838C28.9659 182.15 29.2185 182.402 29.53 182.402H30.5614C30.873 182.402 31.1255 182.15 31.1255 181.838V154.98C31.1255 154.668 30.873 154.416 30.5614 154.416H29.53C29.2185 154.416 28.9659 154.668 28.9659 154.98V181.838Z" fill="#D9D9D9"/>
<rect width="20.9789" height="4.46166" rx="0.940147" transform="matrix(1 0 0 -1 16.3169 156.711)" fill="black"/>
<rect width="154.311" height="4.58801" rx="0.376059" transform="matrix(1 0 0 -1 8.85779 151.164)" fill="black"/>
<rect width="172.027" height="7.64667" rx="0.376059" transform="matrix(1 0 0 -1 0 145.353)" fill="black"/>
<path d="M84.3865 223.834C85.2944 224.115 86.2664 224.115 87.1743 223.834L168.414 198.609C169.731 198.2 170.628 196.982 170.628 195.603V195.603C170.628 193.865 169.219 192.456 167.481 192.456H4.07965C2.3415 192.456 0.932434 193.865 0.932434 195.603V195.603C0.932434 196.982 1.82975 198.2 3.14641 198.609L84.3865 223.834Z" fill="black"/>
<path fill-rule="evenodd" clip-rule="evenodd" d="M94.6562 213.777C96.6698 212.357 97.9015 210.454 97.9015 208.361C97.9015 205.769 96.0109 203.466 93.085 202.015C102.381 203.729 109.09 208.055 109.09 208.055C109.09 208.055 103.127 211.9 94.6562 213.777ZM76.9047 213.777C74.891 212.357 73.6593 210.454 73.6593 208.361C73.6593 205.769 75.5499 203.466 78.4758 202.014C69.18 203.729 62.4705 208.055 62.4705 208.055C62.4705 208.055 68.4334 211.9 76.9047 213.777Z" fill="#D9D9D9"/>
<path d="M94.6304 208.361C94.6304 207.007 93.793 205.659 92.1873 204.606C90.5897 203.557 88.3271 202.878 85.7804 202.878C83.2336 202.878 80.9711 203.557 79.3734 204.606C77.7677 205.659 76.9304 207.007 76.9304 208.361C76.9304 209.716 77.7677 211.064 79.3734 212.117C80.9711 213.166 83.2336 213.845 85.7804 213.845C88.3271 213.845 90.5897 213.166 92.1873 212.117C93.793 211.064 94.6304 209.716 94.6304 208.361Z" stroke="white" stroke-width="1.88029"/>
</mask>
<g mask="url(#mask0_216_1348)">
<rect x="-32.3196" y="137.706" width="240.87" height="100.575" fill="url(#paint0_linear_216_1348)"/>
</g>
<defs>
<linearGradient id="paint0_linear_216_1348" x1="88.1155" y1="137.706" x2="88.1155" y2="238.281" gradientUnits="userSpaceOnUse">
<stop/>
<stop offset="0.0001" stop-color="#D4D4D4"/>
<stop offset="0.689622" stop-color="#BABABA" stop-opacity="0"/>
</linearGradient>
</defs>
</svg>
