<svg width="112" height="112" viewBox="0 0 112 112" fill="none" xmlns="http://www.w3.org/2000/svg">
<path fill-rule="evenodd" clip-rule="evenodd" d="M102.562 87.1119C108.716 77.9028 112 67.0758 112 56H92.9967C92.7291 76.4802 76.0438 93 55.5 93C34.7893 93 18 76.2107 18 55.5C18 34.7893 34.7893 18 55.5 18C55.6669 18 55.8336 18.0011 56 18.0033V0C44.9242 0 34.0972 3.28434 24.8881 9.4377C15.6789 15.5911 8.50125 24.3371 4.26275 34.5697C0.0242388 44.8024 -1.08475 56.0621 1.07602 66.9251C3.2368 77.788 8.57028 87.7662 16.402 95.598C24.2338 103.43 34.212 108.763 45.0749 110.924C55.9379 113.085 67.1976 111.976 77.4303 107.737C87.6629 103.499 96.4089 96.3211 102.562 87.1119Z" fill="#C5C5C5"/>
</svg>
